<?xml version="1.0" encoding="UTF-8"?>
<svg version="1.1" xmlns="http://www.w3.org/2000/svg" width="512" height="269">
<path d="M0 0 C168.96 0 337.92 0 512 0 C512 88.77 512 177.54 512 269 C343.04 269 174.08 269 0 269 C0 180.23 0 91.46 0 0 Z " fill="#2A7A83" transform="translate(0,0)"/>
<path d="M0 0 C1.98 0 3.96 0 6 0 C6 28.38 6 56.76 6 86 C4.02 86 2.04 86 0 86 C0 83.36 0 80.72 0 78 C-144.21 78 -288.42 78 -437 78 C-437 54.9 -437 31.8 -437 8 C-292.79 8 -148.58 8 0 8 C0 5.36 0 2.72 0 0 Z " fill="#CC0059" transform="translate(506,80)"/>
<path d="M0 0 C2.05187739 0.00441963 4.10375818 0.00747475 6.15563965 0.00915527 C13.70146813 0.02478219 21.24722386 0.06666579 28.79296875 0.10546875 C45.68484375 0.16734375 62.57671875 0.22921875 79.98046875 0.29296875 C79.98046875 34.28296875 79.98046875 68.27296875 79.98046875 103.29296875 C-66.20953125 103.29296875 -212.39953125 103.29296875 -363.01953125 103.29296875 C-363.01953125 97.35296875 -363.01953125 91.41296875 -363.01953125 85.29296875 C-361.68921875 84.9784375 -360.35890625 84.66390625 -358.98828125 84.33984375 C-338.97389821 79.67223226 -338.97389821 79.67223226 -319.14453125 74.29296875 C-313.80531162 72.73620312 -308.45273128 71.46231889 -303.01953125 70.29296875 C-297.77208632 69.16332186 -292.60639763 67.94698306 -287.45703125 66.41796875 C-279.88022981 64.17495294 -272.20766011 62.37636976 -264.51538086 60.57470703 C-258.98593953 59.27267409 -253.48696779 57.89634907 -248.00292969 56.41381836 C-240.64133159 54.43748262 -233.25042784 52.59716422 -225.84375 50.796875 C-224.54062171 50.47848378 -223.23754787 50.15986966 -221.93452454 49.84104919 C-216.49560025 48.51063278 -211.05580983 47.18378132 -205.61547852 45.85913086 C-186.32668422 41.17909195 -186.32668422 41.17909195 -167.1653595 36.00772095 C-158.96585737 33.68315975 -150.68163612 31.71483921 -142.39453125 29.73046875 C-139.27707732 28.98027064 -136.1600235 28.22841717 -133.04296875 27.4765625 C-132.28408859 27.2938681 -131.52520844 27.11117371 -130.74333191 26.92294312 C-125.0422337 25.54789113 -119.35205942 24.13202494 -113.66441345 22.70249939 C-107.60692561 21.18273931 -101.53362011 19.73399119 -95.45703125 18.29296875 C-86.26834037 16.10019731 -77.13107574 13.78842052 -68.01953125 11.29296875 C-48.36211314 5.98692815 -48.36211314 5.98692815 -39.24256897 3.84637451 C-37.68499348 3.45862974 -36.13942456 3.02084159 -34.60594177 2.54669189 C-23.22626691 -0.64572606 -11.72074682 -0.08472357 0 0 Z " fill="#000000" transform="translate(432.01953125,165.70703125)"/>
<path d="M0 0 C146.19 0 292.38 0 443 0 C443 26.4 443 52.8 443 80 C407.47511439 80.28212124 407.47511439 80.28212124 392.41992188 80.34179688 C382.08462804 80.38309655 371.74973781 80.4312494 361.41479492 80.52807617 C353.88292659 80.59860668 346.35139029 80.64318414 338.81920081 80.65861946 C334.84348674 80.66761962 330.86872118 80.68823315 326.89331627 80.7401104 C306.71636042 80.993164 289.41275959 79.15968205 270 73 C267.46283743 72.2539077 264.91946643 71.5334735 262.375 70.8125 C261.33214844 70.50699219 260.28929687 70.20148438 259.21484375 69.88671875 C255.47932109 68.85638625 251.71485367 67.98479021 247.9375 67.125 C241.68562595 65.69686752 235.53003284 64.04888871 229.375 62.25 C220.52072756 59.66958351 211.6191206 57.29591865 202.6875 55 C202.02371338 54.82925964 201.35992676 54.65851929 200.67602539 54.48260498 C192.91009369 52.48782737 185.13510837 50.5319226 177.35083008 48.60986328 C168.33742014 46.38405608 159.40251532 44.00222298 150.49365234 41.39013672 C142.38236373 39.0443212 134.19692242 37.01928013 126 35 C116.30511493 32.61160422 106.66828459 30.11446968 97.08984375 27.2890625 C89.11581983 24.96798511 81.0621308 22.98620232 73 21 C64.205063 18.83321783 55.4377867 16.63312785 46.75 14.0625 C31.3184321 9.49843816 15.62309299 5.84319615 0 2 C0 1.34 0 0.68 0 0 Z " fill="#000000" transform="translate(69,0)"/>
<path d="M0 0 C111.87 0 223.74 0 339 0 C335.78127611 1.60936195 333.47699216 2.49522802 330.0625 3.3125 C329.00160156 3.56902344 327.94070313 3.82554687 326.84765625 4.08984375 C324.94306641 4.54037109 324.94306641 4.54037109 323 5 C321.41532714 5.37614436 319.83069436 5.75245764 318.24609375 6.12890625 C317.39563477 6.33088623 316.54517578 6.53286621 315.66894531 6.7409668 C314.78819336 6.95019775 313.90744141 7.15942871 313 7.375 C312.09991211 7.58874268 311.19982422 7.80248535 310.27246094 8.02270508 C297.85390771 10.97798689 285.46077486 13.98511202 273.1875 17.5 C265.47821009 19.70191701 257.70210903 21.44781283 249.84448242 23.03710938 C243.17766271 24.41757881 236.6628771 26.18025352 230.11572266 28.03149414 C220.8654052 30.63021027 211.52361327 32.83010162 202.17724609 35.05224609 C193.89631844 37.02538827 185.64882615 39.05678281 177.45703125 41.375 C166.8885287 44.36286078 156.23634932 47.00718342 145.57885742 49.65673828 C142.20228287 50.49632424 138.82666206 51.33965991 135.45117188 52.18359375 C123.4956934 55.16751028 111.526789 58.08526691 99.53588867 60.92333984 C93.86868831 62.26539976 88.21231021 63.64905136 82.5625 65.0625 C81.55445313 65.31435059 80.54640625 65.56620117 79.5078125 65.82568359 C73.05271906 67.45088006 66.65481478 69.20294061 60.265625 71.0703125 C50.13739683 73.9537076 39.88045386 76.27054813 29.59106445 78.4934082 C23.73436614 79.78085289 18.03292045 81.37420345 12.30859375 83.16796875 C8.2857826 84.17960839 4.12269206 84.5419231 0 85 C0 56.95 0 28.9 0 0 Z " fill="#CD0058" transform="translate(69,166)"/>
<path d="M0 0 C5.29589775 0.66198722 9.94211836 1.35947795 15.04296875 2.63671875 C15.68450394 2.79646683 16.32603912 2.9562149 16.98701477 3.12080383 C19.05519388 3.63782133 21.1213962 4.16225581 23.1875 4.6875 C24.63801777 5.05274653 26.08853864 5.41798078 27.5390625 5.78320312 C36.04267881 7.93526256 44.49321845 10.22885546 52.90698242 12.7097168 C60.88183138 15.03198159 68.93678443 17.01354569 77 19 C86.69487617 21.38843032 96.33171417 23.88552995 105.91015625 26.7109375 C114.57625764 29.23346466 123.33884569 31.35909708 132.10070801 33.51748657 C141.26422536 35.77782621 150.37227784 38.16324588 159.42776489 40.82846069 C164.93209896 42.43620988 170.45413972 43.90181658 176.0234375 45.265625 C187.07060647 48.00068144 198.08787428 50.84699251 209.10205078 53.71166992 C212.39175872 54.56685657 215.68218948 55.41922274 218.97265625 56.27148438 C228.7605909 58.81236671 238.5243536 61.39140692 248.23486328 64.21508789 C251.88505194 65.25123097 255.54671045 66.1107368 259.25 66.9375 C267.57267381 68.83776367 275.77521314 71.10176502 283.98632812 73.43164062 C288.31526345 74.65348367 292.65849264 75.82377664 297 77 C297 77.33 297 77.66 297 78 C198.99 78 100.98 78 0 78 C0 52.26 0 26.52 0 0 Z " fill="#CD0058" transform="translate(69,2)"/>
<path d="M0 0 C20.46 0 40.92 0 62 0 C62 33.99 62 67.98 62 103 C41.54 103 21.08 103 0 103 C0 69.01 0 35.02 0 0 Z " fill="#CD0058" transform="translate(0,166)"/>
<path d="M0 0 C20.46 0 40.92 0 62 0 C62 26.4 62 52.8 62 80 C41.54 80 21.08 80 0 80 C0 53.6 0 27.2 0 0 Z " fill="#000000" transform="translate(0,0)"/>
<path d="M0 0 C20.46 0 40.92 0 62 0 C62 23.1 62 46.2 62 70 C41.54 70 21.08 70 0 70 C0 46.9 0 23.8 0 0 Z " fill="#000000" transform="translate(0,88)"/>
<path d="M0 0 C144.21 0 288.42 0 437 0 C437 2.31 437 4.62 437 7 C292.79 7 148.58 7 0 7 C0 4.69 0 2.38 0 0 Z " fill="#00A99A" transform="translate(69,158)"/>
<path d="M0 0 C143.88 0 287.76 0 436 0 C436 1.98 436 3.96 436 6 C292.12 6 148.24 6 0 6 C0 4.02 0 2.04 0 0 Z " fill="#00A99B" transform="translate(69,81)"/>
<path d="M0 0 C6.6 0 13.2 0 20 0 C20 23.1 20 46.2 20 70 C8.12 70 -3.76 70 -16 70 C-13.74829648 55.36392713 -13.74829648 55.36392713 -12.4140625 49.6953125 C-12.12499023 48.45958496 -11.83591797 47.22385742 -11.53808594 45.95068359 C-11.23676758 44.68820801 -10.93544922 43.42573242 -10.625 42.125 C-10.31004941 40.79121898 -9.9952721 39.45739702 -9.68066406 38.12353516 C-7.85339785 30.40947598 -5.94735358 22.72572874 -3.84375 15.08203125 C-2.47347546 10.07672286 -1.24394664 5.0379839 0 0 Z " fill="#CE0058" transform="translate(42,88)"/>
<path d="M0 0 C144.21 0 288.42 0 437 0 C437 0.66 437 1.32 437 2 C293.45 2 149.9 2 2 2 C2 23.78 2 45.56 2 68 C145.55 68 289.1 68 437 68 C437 68.33 437 68.66 437 69 C292.79 69 148.58 69 0 69 C0 46.23 0 23.46 0 0 Z " fill="#DB0054" transform="translate(69,88)"/>
<path d="M0 0 C7.59 0 15.18 0 23 0 C22.35928291 5.76645381 21.74346819 10.64369854 20.36328125 16.1484375 C20.20330658 16.79525482 20.04333191 17.44207214 19.87850952 18.10848999 C19.53735519 19.4866072 19.19380241 20.86413264 18.84799194 22.24108887 C17.92988593 25.89969972 17.03138538 29.56311342 16.1328125 33.2265625 C15.95137192 33.96511475 15.76993134 34.70366699 15.58299255 35.46459961 C13.34752735 44.60473285 11.33305373 53.79209901 9.32421875 62.984375 C5.28728448 81.43436673 5.28728448 81.43436673 3 89 C2.01 89 1.02 89 0 89 C0 59.63 0 30.26 0 0 Z " fill="#010000" transform="translate(0,166)"/>
<path d="M0 0 C2.31 0 4.62 0 7 0 C7 33.99 7 67.98 7 103 C4.69 103 2.38 103 0 103 C0 69.01 0 35.02 0 0 Z " fill="#0E9C95" transform="translate(62,166)"/>
<path d="M0 0 C0.33 0 0.66 0 1 0 C1 24.42 1 48.84 1 74 C-4.94 74 -10.88 74 -17 74 C-15.04734205 64.8302233 -13.06003281 55.67012509 -11.00268555 46.52319336 C-10.70969693 45.2181509 -10.41802573 43.91281196 -10.12768555 42.60717773 C-8.23779663 34.10958276 -6.15285273 25.69592178 -3.87670898 17.29614258 C-2.88466046 13.5663606 -2.02925254 9.84187482 -1.25 6.0625 C-1.00765625 4.89847656 -0.7653125 3.73445312 -0.515625 2.53515625 C-0.34546875 1.69855469 -0.1753125 0.86195312 0 0 Z " fill="#CD0058" transform="translate(61,6)"/>
<path d="M0 0 C2.31 0 4.62 0 7 0 C7 26.4 7 52.8 7 80 C4.69 80 2.38 80 0 80 C0 53.6 0 27.2 0 0 Z " fill="#119B95" transform="translate(62,0)"/>
<path d="M0 0 C20.46 0 40.92 0 62 0 C62 2.64 62 5.28 62 8 C41.54 8 21.08 8 0 8 C0 5.36 0 2.72 0 0 Z " fill="#079F96" transform="translate(0,158)"/>
<path d="M0 0 C20.46 0 40.92 0 62 0 C62 2.64 62 5.28 62 8 C41.54 8 21.08 8 0 8 C0 5.36 0 2.72 0 0 Z " fill="#02A197" transform="translate(0,80)"/>
<path d="M0 0 C146.19 0 292.38 0 443 0 C443 2.97 443 5.94 443 9 C441.02 9 439.04 9 437 9 C437 6.36 437 3.72 437 1 C292.79 1 148.58 1 0 1 C0 0.67 0 0.34 0 0 Z " fill="#9E2263" transform="translate(69,157)"/>
<path d="M0 0 C0 4.95 0 9.9 0 15 C-19.8 15 -39.6 15 -60 15 C-57.01829988 13.50914994 -54.87138656 12.5901963 -51.74145508 11.79492188 C-50.90991409 11.58130005 -50.07837311 11.36767822 -49.22163391 11.14758301 C-48.32994003 10.92356812 -47.43824615 10.69955322 -46.51953125 10.46875 C-45.12839363 10.11387512 -45.12839363 10.11387512 -43.70915222 9.75183105 C-41.74699375 9.25217213 -39.78427563 8.75470656 -37.82104492 8.25927734 C-34.83979204 7.50688779 -31.86019636 6.74821807 -28.88085938 5.98828125 C-26.96884424 5.50223328 -25.05673769 5.01654478 -23.14453125 4.53125 C-21.82217216 4.19522766 -21.82217216 4.19522766 -20.47309875 3.85241699 C-16.36189464 2.81589973 -12.24567988 1.80212912 -8.1159668 0.84179688 C-7.41859909 0.67901245 -6.72123138 0.51622803 -6.00273132 0.34851074 C-4 0 -4 0 0 0 Z " fill="#050002" transform="translate(62,254)"/>
<path d="M0 0 C1.98 0 3.96 0 6 0 C6 23.1 6 46.2 6 70 C4.02 70 2.04 70 0 70 C0 46.9 0 23.8 0 0 Z " fill="#07A599" transform="translate(63,88)"/>
<path d="M0 0 C2.31 0 4.62 0 7 0 C7 2.64 7 5.28 7 8 C5.02 8 3.04 8 1 8 C1 31.1 1 54.2 1 78 C2.98 78 4.96 78 7 78 C7 80.64 7 83.28 7 86 C4.69 86 2.38 86 0 86 C0 57.62 0 29.24 0 0 Z " fill="#4E657F" transform="translate(62,80)"/>
<path d="M0 0 C0.33 0 0.66 0 1 0 C1 24.42 1 48.84 1 74 C0.67 74 0.34 74 0 74 C0 54.53 0 35.06 0 15 C-0.66 15 -1.32 15 -2 15 C-2.22577402 9.5814234 -1.46670113 5.22512279 0 0 Z " fill="#E10050" transform="translate(61,6)"/>
<path d="M0 0 C0.33 0.99 0.66 1.98 1 3 C11.89 3 22.78 3 34 3 C34.495 3.99 34.495 3.99 35 5 C23.12 5 11.24 5 -1 5 C-0.67 3.35 -0.34 1.7 0 0 Z " fill="#C7105B" transform="translate(27,153)"/>
<path d="M0 0 C2.31 0 4.62 0 7 0 C7 2.64 7 5.28 7 8 C4.69 8 2.38 8 0 8 C0 5.36 0 2.72 0 0 Z " fill="#E1D812" transform="translate(62,158)"/>
<path d="M0 0 C2.31 0 4.62 0 7 0 C7 2.64 7 5.28 7 8 C4.69 8 2.38 8 0 8 C0 5.36 0 2.72 0 0 Z " fill="#E1D812" transform="translate(62,80)"/>
<path d="M0 0 C1.98 0 3.96 0 6 0 C6 2.64 6 5.28 6 8 C4.02 8 2.04 8 0 8 C0 5.36 0 2.72 0 0 Z " fill="#EED700" transform="translate(506,158)"/>
<path d="M0 0 C1.98 0 3.96 0 6 0 C6 2.64 6 5.28 6 8 C4.02 8 2.04 8 0 8 C0 5.36 0 2.72 0 0 Z " fill="#F4D906" transform="translate(506,80)"/>
</svg>
